<svg width="32" height="32" viewBox="0 0 32 32" fill="none" xmlns="http://www.w3.org/2000/svg">
<rect x="10.6666" y="10.6667" width="10.6667" height="10.6667" rx="1" fill="#E02626"/>
<path fill-rule="evenodd" clip-rule="evenodd" d="M6.42867e-06 12.1167C6.51986e-06 11.6976 6.56545e-06 11.4881 0.0618152 11.3205C0.163069 11.0461 0.379429 10.8297 0.65389 10.7285C0.821429 10.6667 1.03095 10.6667 1.45001 10.6667H3.29075C3.7098 10.6667 3.91932 10.6667 4.08686 10.7285C4.36132 10.8297 4.57768 11.0461 4.67894 11.3205C4.74075 11.4881 4.74075 11.6976 4.74075 12.1167V26.1926C4.74075 26.7184 4.74179 27.0059 4.75459 27.2143V27.2143C4.75562 27.231 4.76896 27.2444 4.78571 27.2454V27.2454C4.99411 27.2582 5.28163 27.2592 5.80741 27.2592H19.8833C20.3024 27.2592 20.5119 27.2592 20.6794 27.3211C20.9539 27.4223 21.1703 27.6387 21.2715 27.9131C21.3333 28.0807 21.3333 28.2902 21.3333 28.7092V30.55C21.3333 30.969 21.3333 31.1786 21.2715 31.3461C21.1703 31.6206 20.9539 31.8369 20.6794 31.9382C20.5119 32 20.3024 32 19.8833 32L5.75098 32C5.30315 32 4.86682 32.0001 4.49489 31.9772C4.08886 31.9522 3.60646 31.8938 3.09989 31.707C1.79875 31.2269 0.773044 30.2012 0.293026 28.9001C0.106143 28.3935 0.04774 27.9111 0.0227849 27.5051C-7.57663e-05 27.1331 -3.67716e-05 26.6968 3.35336e-06 26.249L6.42867e-06 12.1167Z" fill="#CD8C2A"/>
<path fill-rule="evenodd" clip-rule="evenodd" d="M32 4.74075L32 20.3333C32 20.8856 31.5523 21.3333 31 21.3333L28.2593 21.3333C27.707 21.3333 27.2593 20.8856 27.2593 20.3333L27.2593 5.74075C27.2593 5.18846 26.8115 4.74075 26.2593 4.74075L11.6667 4.74075C11.1144 4.74075 10.6667 4.29304 10.6667 3.74075L10.6667 1.00001C10.6667 0.447725 11.1144 9.69369e-06 11.6667 9.64541e-06L27.2593 8.28226e-06C29.8775 8.05337e-06 32 2.12251 32 4.74075Z" fill="#1C085E"/>
</svg>
